<svg xmlns="http://www.w3.org/2000/svg" viewBox="0 0 130.2 137.36"><defs><style>
.cls-1,.cls-2{fill:#eef1f6;}.cls-2{isolation:isolate;font-size:24px;font-family:Forum;}.cls-3{letter-spacing:-0.06em;}
</style></defs><g id="Слой_2" data-name="Слой 2"><g id="Слой_1-2" data-name="Слой 1"><path class="cls-1" d="M99.6,14.32c.5,6.5,2.6,43-22.2,63.4a54.3,54.3,0,0,1-13.3,8,67.69,67.69,0,0,1-19.3-16.6C27.4,47,29.7,20.82,30.5,13.92a57.88,57.88,0,0,0,12.3-1.3,63.53,63.53,0,0,0,20.8-8.5l2.6-.3a66.69,66.69,0,0,0,20.7,8.8A63.63,63.63,0,0,0,99.6,14.32Z"/><path d="M95.4,18c.4,5.8,2.3,37.8-19.5,55.7a50.16,50.16,0,0,1-11.7,7,61.1,61.1,0,0,1-17-14.6C31.9,46.72,34,23.72,34.7,17.72a49.42,49.42,0,0,0,10.8-1.2A54.38,54.38,0,0,0,63.7,9a18,18,0,0,1,2.2-.2,56,56,0,0,0,18.2,7.7A55.88,55.88,0,0,0,95.4,18Z"/><rect class="cls-1" x="56.7" y="40.82" width="16" height="16"/><polygon class="cls-1" points="81.1 34.52 72.8 40.82 66.6 32.82 66.7 32.72 66.6 32.72 74.9 26.42 81.1 34.52"/><polygon class="cls-1" points="66.6 32.72 66.6 32.82 56.7 40.72 48.7 30.72 58.7 22.72 66.6 32.72"/><path class="cls-1" d="M29.9.62A10,10,0,0,0,26,0a12.05,12.05,0,0,0-3.8.6,7.46,7.46,0,0,0-2.5,1.3,7.07,7.07,0,0,0-2.3,3.2c-.1,1.8-.1,3.6-.2,5.4a18.94,18.94,0,0,1,4.7-1.4,17.22,17.22,0,0,1,3.1-.2,8.87,8.87,0,0,1,1.5-5A9,9,0,0,1,29.9.62Z"/><path class="cls-1" d="M15.8.92a9.88,9.88,0,0,0-3.4,2.6,13.27,13.27,0,0,0-2.5,4.6v6.3c.4,1.3.8,2.6,1.2,4,1-1.4,2.1-3,3.1-4.7a26,26,0,0,0,1.5-2.8,30.15,30.15,0,0,0,.5-5.7A27.37,27.37,0,0,0,15.8.92Z"/><path class="cls-1" d="M12,20.12a17.69,17.69,0,0,1,2.8-5.5,16.19,16.19,0,0,1,3.4-3.2,18.73,18.73,0,0,1,3.6-.9,11.64,11.64,0,0,1,4.6.5,19.11,19.11,0,0,1-2.1,3.2,14.28,14.28,0,0,1-3,2.7,19.13,19.13,0,0,0-6.1,1.4A30.49,30.49,0,0,0,12,20.12Z"/><path class="cls-1" d="M8.7,30.62A10.1,10.1,0,0,1,9.2,26a11.09,11.09,0,0,1,1.6-3.1,12.5,12.5,0,0,1,3.7-3.3,10.92,10.92,0,0,1,6.3-1.3,16.34,16.34,0,0,1-1.5,3.6,13.15,13.15,0,0,1-2.5,3.2C14,27,11.3,28.82,8.7,30.62Z"/><path class="cls-1" d="M7.3,29.32l2.7-8.7a12.57,12.57,0,0,0-.3-5.3,13.77,13.77,0,0,0-1.8-4,15.54,15.54,0,0,0-2.4,3.2,14.43,14.43,0,0,0-1.6,5.3,14.5,14.5,0,0,0,1,5.1A13.49,13.49,0,0,0,7.3,29.32Z"/><path class="cls-1" d="M2.8,22.92a33.72,33.72,0,0,1,2.1,3.4,24.17,24.17,0,0,1,2,5.1c.1,3,.2,6,.2,9-2-2.3-3.9-4.7-5.9-7a18.62,18.62,0,0,1,.5-7.9C2.1,24.62,2.4,23.72,2.8,22.92Z"/><path class="cls-1" d="M17.1,27.12a15.87,15.87,0,0,0-5.3,2.3A16.68,16.68,0,0,0,8,33c0,2.7,0,5.3-.1,8a31.26,31.26,0,0,1,3.1-3.3,43.2,43.2,0,0,1,5.1-4.2C16.5,31.32,16.8,29.22,17.1,27.12Z"/><path class="cls-1" d="M10,51.22a28.59,28.59,0,0,1,1.9-3,26.64,26.64,0,0,1,4.2-4.5v-7.9a15.24,15.24,0,0,0-4.2,2.7,18.19,18.19,0,0,0-2.8,3.3,18,18,0,0,0-.3,4.3A16.58,16.58,0,0,0,10,51.22Z"/><path class="cls-1" d="M8.5,51.12c-.4-2.9-.8-5.8-1.1-8.7-2.3-2.6-4.6-5.1-6.9-7.7-.2,1.3-.4,2.9-.5,4.6a27.59,27.59,0,0,0,.5,5.4,24.39,24.39,0,0,0,3.6,3.7A22.76,22.76,0,0,0,8.5,51.12Z"/><path class="cls-1" d="M15.1,62.72a14.68,14.68,0,0,1,1-5.6,11.09,11.09,0,0,1,1.6-2.9,47.6,47.6,0,0,0-.7-6.1,24.6,24.6,0,0,0-.7-2.9,14.88,14.88,0,0,0-3,3.1,16.75,16.75,0,0,0-2.2,4.1c0,.9-.1,1.8-.2,2.8A10,10,0,0,0,12.4,60,8.59,8.59,0,0,0,15.1,62.72Z"/><path class="cls-1" d="M9.6,53.72a15.32,15.32,0,0,0,1.1,4.7,12.42,12.42,0,0,0,2.5,3.8c-.9-.3-1.9-.7-2.9-1.1a39.13,39.13,0,0,1-6.2-3.5A19.47,19.47,0,0,1,1.8,53a16.4,16.4,0,0,1-.8-5.2,35.45,35.45,0,0,1,4.9,3.1A27.55,27.55,0,0,1,9.6,53.72Z"/><path class="cls-1" d="M21.3,71.42a51.34,51.34,0,0,1,.3-5.3c.2-1.5.4-2.9.7-4.2-1.2-2.4-2.4-4.9-3.7-7.3A14.67,14.67,0,0,0,16.7,58a13.33,13.33,0,0,0-1,4.1,10.13,10.13,0,0,0,1.3,5.3A10.39,10.39,0,0,0,21.3,71.42Z"/><path class="cls-1" d="M19.4,71.12a15.51,15.51,0,0,1-3.6-3.9,12.35,12.35,0,0,1-1.6-3.3,31.48,31.48,0,0,0-4.5-2.2c-1.8-.8-3.5-1.4-5-1.9A13,13,0,0,0,5.9,64a11.83,11.83,0,0,0,4,4.6,23.85,23.85,0,0,0,4.4,1.7A29.19,29.19,0,0,0,19.4,71.12Z"/><path class="cls-1" d="M23.5,62.52a23.57,23.57,0,0,0-.9,3.6,25.78,25.78,0,0,0-.3,6,12.16,12.16,0,0,0,2.8,4,11.55,11.55,0,0,0,4.2,2.5,20.81,20.81,0,0,1-1-5.3,26.42,26.42,0,0,1,.3-5.2C26.9,66.32,25.2,64.42,23.5,62.52Z"/><path class="cls-1" d="M20.8,72.62a14,14,0,0,0,2.7,3.3,16,16,0,0,0,3.7,2.5,22.09,22.09,0,0,1-3.9.3,18.27,18.27,0,0,1-3.5-.3,14.49,14.49,0,0,1-3.8-2.5,18.11,18.11,0,0,1-4.1-5.1c1.6.2,3.4.5,5.3.9C18.4,72,19.7,72.32,20.8,72.62Z"/><path class="cls-1" d="M29.8,69.82a13,13,0,0,0-.4,4.3,12.62,12.62,0,0,0,1.7,5.4,14,14,0,0,0,4.3,3.7,13.62,13.62,0,0,0,4.2,1.4,21.11,21.11,0,0,1-1.8-4.2A21.51,21.51,0,0,1,36.7,75c-1.6-1.3-3.3-2.6-5.2-3.9A8.56,8.56,0,0,0,29.8,69.82Z"/><path class="cls-1" d="M30.4,79.92a12.62,12.62,0,0,0,3.3,3.3,11.78,11.78,0,0,0,3.4,1.5c-.7.2-1.4.5-2.1.7a23.79,23.79,0,0,1-6.1.8,12.64,12.64,0,0,1-4.3-1.7,12.85,12.85,0,0,1-4.7-4.9Z"/><path class="cls-1" d="M29.9,88a1.08,1.08,0,0,1,.2-.7c.1-.3.6-.9,3.4-1.4a26,26,0,0,1,3.5-.3h1.6a4.2,4.2,0,0,1,2.2.5c.2.1.1.1,1.1.7s1.2.8,1.7,1.2a4.06,4.06,0,0,1,1,.9c1.2.2,3,.4,5.1.9a46.11,46.11,0,0,1,8.8,3.1,57.83,57.83,0,0,1,5.5,2.8c-.9.5-1.8,1.1-2.7,1.6-2.4-1.5-4.6-2.6-6.2-3.4a32.27,32.27,0,0,0-6.6-2.5,16.86,16.86,0,0,0-3.9-.6,26.81,26.81,0,0,0-2.7.7,17.17,17.17,0,0,1-12-3.5Z"/><path class="cls-1" d="M50.2,88.12a13.93,13.93,0,0,0-1.2-4.4,13.57,13.57,0,0,0-3.2-4.3,15.51,15.51,0,0,0-3.3-2.1,41.56,41.56,0,0,0-4.5-1.9,11.78,11.78,0,0,0,.3,4.4,10.78,10.78,0,0,0,1.6,3.4,9.76,9.76,0,0,0,5.4,4.4A10.28,10.28,0,0,0,50.2,88.12Z"/><path class="cls-1" d="M48.8,106.92l5.6,3.3a43.62,43.62,0,0,1,14.9-14.1,39.71,39.71,0,0,1,7.7-3.7c.3-.1,2-.6,4.4-1.4.9-.3,1.6-.5,2.1-.7a7.2,7.2,0,0,0,1.8,1,7.39,7.39,0,0,0,2.3.4,16,16,0,0,0,5.1-.4,17,17,0,0,0,4.2-1.5,2.84,2.84,0,0,0,1.9-1.6,3.71,3.71,0,0,0,.2-.9,4.28,4.28,0,0,0-1.3-.9,5,5,0,0,0-2.9-.5H91.3c-.8.1-1.7.1-2.6.2a13.64,13.64,0,0,0-2,1.1,18.08,18.08,0,0,0-2.5,1.9,50.34,50.34,0,0,0-6.7,1.4,48.87,48.87,0,0,0-9.3,3.6c-1.7,1-3.5,2-5.2,3-1.9,1.1-3.9,2.4-6,3.8A69.65,69.65,0,0,0,48.8,106.92Z"/><path class="cls-1" d="M81.1,107.72c-2,1.2-4.1,2.4-6.1,3.6a33.77,33.77,0,0,0-4.9-7.1,25.39,25.39,0,0,0-5.3-4.5l2.6-2C72,101,76.5,104.32,81.1,107.72Z"/><path class="cls-1" d="M100.4.62a10,10,0,0,1,3.9-.6,12.05,12.05,0,0,1,3.8.6,6.38,6.38,0,0,1,2.4,1.3,8,8,0,0,1,2.3,3.2c.1,1.8.1,3.6.2,5.4a19.4,19.4,0,0,0-4.6-1.4,17.22,17.22,0,0,0-3.1-.2,8.87,8.87,0,0,0-1.5-5A9,9,0,0,0,100.4.62Z"/><path class="cls-1" d="M114.5.92a10.89,10.89,0,0,1,3.4,2.6,11.74,11.74,0,0,1,2.5,4.6v6.3c-.4,1.3-.8,2.6-1.2,4-1-1.4-2.1-3-3.1-4.7a26,26,0,0,1-1.5-2.8,24.19,24.19,0,0,1-.4-5.7A14.8,14.8,0,0,1,114.5.92Z"/><path class="cls-1" d="M118.3,20.12a17.69,17.69,0,0,0-2.8-5.5,16.19,16.19,0,0,0-3.4-3.2,18.73,18.73,0,0,0-3.6-.9,11.64,11.64,0,0,0-4.6.5,19.11,19.11,0,0,0,2.1,3.2,17.15,17.15,0,0,0,2.9,2.7,19.13,19.13,0,0,1,6.1,1.4A24.51,24.51,0,0,1,118.3,20.12Z"/><path class="cls-1" d="M121.6,30.62a11.74,11.74,0,0,0-.5-4.6,11.09,11.09,0,0,0-1.6-3.1,12.5,12.5,0,0,0-3.7-3.3,10.92,10.92,0,0,0-6.3-1.3,16.34,16.34,0,0,0,1.5,3.6,13.15,13.15,0,0,0,2.6,3.2C116.3,27,118.9,28.82,121.6,30.62Z"/><path class="cls-1" d="M123,29.32l-2.7-8.7a12.57,12.57,0,0,1,.3-5.3,13.77,13.77,0,0,1,1.8-4,15.54,15.54,0,0,1,2.4,3.2,14.43,14.43,0,0,1,1.6,5.3,14.5,14.5,0,0,1-1,5.1A15.67,15.67,0,0,1,123,29.32Z"/><path class="cls-1" d="M127.5,22.92a33.72,33.72,0,0,0-2.1,3.4,24.17,24.17,0,0,0-2,5.1c-.1,3-.2,6-.2,9,1.9-2.3,3.9-4.7,5.9-7a18.62,18.62,0,0,0-.5-7.9C128.2,24.62,127.9,23.72,127.5,22.92Z"/><path class="cls-1" d="M113.2,27.12a15.87,15.87,0,0,1,5.3,2.3,16.68,16.68,0,0,1,3.8,3.6c0,2.7.1,5.3.1,8a31.26,31.26,0,0,0-3.1-3.3,53.2,53.2,0,0,0-5.1-4.2C113.8,31.32,113.5,29.22,113.2,27.12Z"/><path class="cls-1" d="M120.2,51.22a28.59,28.59,0,0,0-1.9-3,26.64,26.64,0,0,0-4.2-4.5v-7.9a16.85,16.85,0,0,1,4.2,2.7,18.19,18.19,0,0,1,2.8,3.3,18,18,0,0,1,.3,4.3A14.11,14.11,0,0,1,120.2,51.22Z"/><path class="cls-1" d="M121.8,51.12c.4-2.9.8-5.8,1.1-8.7,2.3-2.6,4.6-5.1,6.9-7.7a30.31,30.31,0,0,1,.4,4.6,39.88,39.88,0,0,1-.4,5.4,24.39,24.39,0,0,1-3.6,3.7A22.76,22.76,0,0,1,121.8,51.12Z"/><path class="cls-1" d="M115.2,62.72a14.68,14.68,0,0,0-1-5.6,15,15,0,0,0-1.6-2.9,47.6,47.6,0,0,1,.7-6.1,24.6,24.6,0,0,1,.7-2.9,14.88,14.88,0,0,1,3,3.1,16.75,16.75,0,0,1,2.2,4.1c.1.9.1,1.8.2,2.8a10,10,0,0,1-1.5,4.8A8.59,8.59,0,0,1,115.2,62.72Z"/><path class="cls-1" d="M120.7,53.72a15.32,15.32,0,0,1-1.1,4.7,12.42,12.42,0,0,1-2.5,3.8c.9-.3,1.9-.7,2.9-1.1a39.13,39.13,0,0,0,6.2-3.5,19.47,19.47,0,0,0,2.3-4.6,16.4,16.4,0,0,0,.8-5.2,35.45,35.45,0,0,0-4.9,3.1A27.55,27.55,0,0,0,120.7,53.72Z"/><path class="cls-1" d="M109,71.42a51.34,51.34,0,0,0-.3-5.3c-.2-1.5-.4-2.9-.7-4.2,1.2-2.4,2.4-4.9,3.7-7.3a14.67,14.67,0,0,1,1.9,3.4,17.08,17.08,0,0,1,1,4.1,10.13,10.13,0,0,1-1.3,5.3A10.39,10.39,0,0,1,109,71.42Z"/><path class="cls-1" d="M110.9,71.12a15.51,15.51,0,0,0,3.6-3.9,12.35,12.35,0,0,0,1.6-3.3,31.48,31.48,0,0,1,4.5-2.2c1.8-.8,3.5-1.4,5-1.9a13,13,0,0,1-1.2,4.2,12.66,12.66,0,0,1-3.9,4.6,21.32,21.32,0,0,1-4.4,1.7A31.62,31.62,0,0,1,110.9,71.12Z"/><path class="cls-1" d="M106.8,62.52a15.75,15.75,0,0,1,.9,3.6,25.78,25.78,0,0,1,.3,6,12.16,12.16,0,0,1-2.8,4,11.55,11.55,0,0,1-4.2,2.5,20.81,20.81,0,0,0,1-5.3,26.42,26.42,0,0,0-.3-5.2C103.4,66.32,105.1,64.42,106.8,62.52Z"/><path class="cls-1" d="M109.5,72.62a17.05,17.05,0,0,1-2.7,3.3,18.46,18.46,0,0,1-3.7,2.5,22.09,22.09,0,0,0,3.9.3,18.27,18.27,0,0,0,3.5-.3,16.32,16.32,0,0,0,3.8-2.5,18.11,18.11,0,0,0,4.1-5.1c-1.6.2-3.4.5-5.3.9C111.9,72,110.6,72.32,109.5,72.62Z"/><path class="cls-1" d="M100.5,69.82a13,13,0,0,1,.4,4.3,12.62,12.62,0,0,1-1.7,5.4,14,14,0,0,1-4.3,3.7,13.62,13.62,0,0,1-4.2,1.4,21.11,21.11,0,0,0,1.8-4.2A21.51,21.51,0,0,0,93.6,75c1.6-1.3,3.3-2.6,5.2-3.9A8.56,8.56,0,0,1,100.5,69.82Z"/><path class="cls-1" d="M99.9,79.92a12.62,12.62,0,0,1-3.3,3.3,11.78,11.78,0,0,1-3.4,1.5c.7.2,1.4.5,2.1.7a23.79,23.79,0,0,0,6.1.8,12.64,12.64,0,0,0,4.3-1.7,13.71,13.71,0,0,0,4.7-4.9Z"/><path class="cls-1" d="M80.1,88.12a13.93,13.93,0,0,1,1.2-4.4,13.57,13.57,0,0,1,3.2-4.3,15.51,15.51,0,0,1,3.3-2.1,41.56,41.56,0,0,1,4.5-1.9,11.78,11.78,0,0,1-.3,4.4,10.78,10.78,0,0,1-1.6,3.4,9.76,9.76,0,0,1-5.4,4.4A10.28,10.28,0,0,1,80.1,88.12Z"/><text class="cls-2" transform="translate(15.61 131.4)">ПИФА<tspan class="cls-3" x="62.3" y="0">Г</tspan><tspan x="71.57" y="0">ОР</tspan></text></g></g></svg>