<svg xmlns="http://www.w3.org/2000/svg" viewBox="0 0 33.29 39"><defs><style>.cls-1{fill:#eef1f6;}</style></defs><g id="Слой_2" data-name="Слой 2"><g id="Слой_1-2" data-name="Слой 1"><path class="cls-1" d="M33.18,5c.2,3.1,1.2,20.5-10.6,30.2a26.21,26.21,0,0,1-6.3,3.8,34.67,34.67,0,0,1-9.2-7.9C-1.22,20.6-.12,8.1.28,4.8a31.74,31.74,0,0,0,5.8-.6A29.12,29.12,0,0,0,16,.1c.4,0,.8-.1,1.2-.1a32.17,32.17,0,0,0,9.9,4.2A23.79,23.79,0,0,0,33.18,5Z"/><path d="M31.18,6.8c.2,2.7,1.1,18-9.3,26.6a18.4,18.4,0,0,1-5.6,3.3,30.07,30.07,0,0,1-8.1-6.9c-7.3-9.2-6.3-20.2-6-23.1a24.35,24.35,0,0,0,5.1-.5A24.71,24.71,0,0,0,16,2.6c.4,0,.7-.1,1.1-.1a27.59,27.59,0,0,0,8.7,3.7A27.81,27.81,0,0,0,31.18,6.8Z"/><rect class="cls-1" x="12.68" y="17.7" width="7.6" height="7.6"/><polygon class="cls-1" points="24.28 14.7 20.38 17.7 17.48 13.8 17.48 13.8 17.48 13.8 21.38 10.8 24.28 14.7"/><polygon class="cls-1" points="17.48 13.8 17.48 13.8 12.68 17.6 8.88 12.8 13.68 9.1 17.48 13.8"/></g></g></svg>