<svg xmlns="http://www.w3.org/2000/svg" xmlns:xlink="http://www.w3.org/1999/xlink" viewBox="0 0 198.02 81.83"><defs><style>.cls-1{fill:#8a8a9f;}.cls-2,.cls-4,.cls-6,.cls-7{fill:#394458;}.cls-3{fill:#eef1f6;}.cls-4{font-size:24px;}.cls-4,.cls-7{font-family:Forum;}.cls-5{letter-spacing:-0.06em;}.cls-6{stroke:#394458;stroke-miterlimit:10;stroke-width:0.25px;}.cls-7{font-size:10px;}.cls-8{letter-spacing:-0.04em;}.cls-9{letter-spacing:0em;}.cls-10{letter-spacing:-0.01em;}</style><symbol id="Новый_символ_1" data-name="Новый символ 1" viewBox="0 0 198.03 81.83"><path class="cls-1" d="M69.62,10.47c.48,6.55,2.61,43-22.22,63.39a54.34,54.34,0,0,1-13.27,8,67.84,67.84,0,0,1-19.28-16.6C-2.58,43.17-.25,17,.59,10.1A60.76,60.76,0,0,0,12.85,8.8,62.28,62.28,0,0,0,33.61.26L36.17,0A66.11,66.11,0,0,0,56.88,8.79,65.25,65.25,0,0,0,69.62,10.47Z"/><path class="cls-2" d="M65.43,14.15c.42,5.75,2.3,37.82-19.54,55.72a47.09,47.09,0,0,1-11.67,7A59.52,59.52,0,0,1,17.28,62.29C2,42.9,4,19.88,4.74,13.83a53.86,53.86,0,0,0,10.78-1.15A54.37,54.37,0,0,0,33.77,5.17L36,4.94a57.86,57.86,0,0,0,18.21,7.73A57.4,57.4,0,0,0,65.43,14.15Z"/><rect class="cls-3" x="26.75" y="36.98" width="16" height="16"/><polygon class="cls-3" points="51.11 30.66 42.84 36.97 36.71 28.93 36.76 28.89 36.71 28.82 44.92 22.55 51.11 30.66"/><polygon class="cls-3" points="36.66 28.86 36.71 28.93 26.75 36.88 18.77 26.86 28.79 18.89 36.71 28.82 36.66 28.86"/><text class="cls-4" transform="translate(75.19 28.74)">ПИФА<tspan class="cls-5" x="62.3" y="0">Г</tspan><tspan x="71.57" y="0">ОР</tspan></text><line class="cls-6" x1="76.82" y1="30.77" x2="171.93" y2="30.77"/><text class="cls-7" transform="translate(76.27 39.1)"><tspan class="cls-8">О</tspan><tspan class="cls-9" x="7.22" y="0">бразовател</tspan><tspan class="cls-10" x="54.15" y="0">ь</tspan><tspan x="58.47" y="0">ная платформа</tspan></text></symbol></defs><g id="Слой_2" data-name="Слой 2"><g id="Слой_1-2" data-name="Слой 1"><use width="198.02" height="81.83" xlink:href="#Новый_символ_1"/></g></g></svg>