<svg xmlns="http://www.w3.org/2000/svg" viewBox="0 0 130.22 111.39"><defs><style>
    .cls-1{fill:#A7F3D0;}
    .cls-2,.cls-4{fill:#2d5939;}
    .cls-3{fill:#e8f6e8;}
</style></defs><g id="Слой_2" data-name="Слой 2"><g id="Слой_1-2" data-name="Слой 1"><path class="cls-1" d="M99.52,14.38c.49,6.55,2.62,43-22.22,63.39a53.65,53.65,0,0,1-13.27,8,68,68,0,0,1-19.28-16.6C27.32,47.08,29.66,20.9,30.49,14a61.42,61.42,0,0,0,12.26-1.3A62.06,62.06,0,0,0,63.51,4.17l2.56-.26A66.22,66.22,0,0,0,86.78,12.7,64.58,64.58,0,0,0,99.52,14.38Z"/><path class="cls-2" d="M95.33,18.06c.43,5.76,2.3,37.82-19.53,55.73a47.39,47.39,0,0,1-11.67,7A59.7,59.7,0,0,1,47.18,66.21C31.86,46.81,33.91,23.79,34.64,17.74a53.86,53.86,0,0,0,10.78-1.15A54.58,54.58,0,0,0,63.67,9.08l2.25-.22a58.33,58.33,0,0,0,18.21,7.73A57.32,57.32,0,0,0,95.33,18.06Z"/><rect class="cls-3" x="56.65" y="40.9" width="16" height="16"/><polygon class="cls-3" points="81.01 34.57 72.74 40.88 66.61 32.85 66.66 32.81 66.61 32.74 74.82 26.47 81.01 34.57"/><polygon class="cls-3" points="66.56 32.78 66.61 32.85 56.65 40.79 48.67 30.77 58.69 22.8 66.61 32.74 66.56 32.78"/><path class="cls-2" d="M29.9.64a11.87,11.87,0,0,0-7.69,0,7.08,7.08,0,0,0-2.45,1.27,7.18,7.18,0,0,0-2.29,3.24l-.18,5.37a18,18,0,0,1,4.65-1.43A17.33,17.33,0,0,1,25,8.86a9.59,9.59,0,0,1,1.48-5A9.82,9.82,0,0,1,29.9.64Z"/><path class="cls-2" d="M15.78,1A11.25,11.25,0,0,0,12.42,3.6,11.39,11.39,0,0,0,10,8.17v6.29l1.17,4a50.87,50.87,0,0,0,3.13-4.69c.56-1,1.07-1.89,1.53-2.79a27.08,27.08,0,0,0,.45-5.7A28.75,28.75,0,0,0,15.78,1Z"/><path class="cls-2" d="M12,20.17a15.87,15.87,0,0,1,6.17-8.64,12.3,12.3,0,0,1,3.59-.87,12.48,12.48,0,0,1,4.63.45,16.29,16.29,0,0,1-2.11,3.16A16.56,16.56,0,0,1,21.32,17a18,18,0,0,0-6.11,1.4A18.41,18.41,0,0,0,12,20.17Z"/><path class="cls-2" d="M8.63,30.72a11.18,11.18,0,0,1,5.76-10.95,11.18,11.18,0,0,1,6.32-1.26,14.64,14.64,0,0,1-4,6.81Z"/><path class="cls-2" d="M7.29,29.38,10,20.72a13.08,13.08,0,0,0-.33-5.31,13.09,13.09,0,0,0-1.84-4,14,14,0,0,0-4,8.51,15.47,15.47,0,0,0,1,5.06A15,15,0,0,0,7.29,29.38Z"/><path class="cls-2" d="M2.76,23a26.31,26.31,0,0,1,2.11,3.45,26.79,26.79,0,0,1,2,5.09c.08,3,.16,6,.23,9l-5.86-7a18.56,18.56,0,0,1,.49-7.86A22.58,22.58,0,0,1,2.76,23Z"/><path class="cls-2" d="M17.09,27.19A15.67,15.67,0,0,0,8,33.07c0,2.67,0,5.34-.07,8a40.6,40.6,0,0,1,8.2-7.57Q16.63,30.36,17.09,27.19Z"/><path class="cls-2" d="M10,51.32a26.71,26.71,0,0,1,1.86-3,25.41,25.41,0,0,1,4.2-4.52V35.91a15.52,15.52,0,0,0-4.21,2.68,15.15,15.15,0,0,0-2.8,3.33,16.13,16.13,0,0,0,.95,9.4Z"/><path class="cls-2" d="M8.43,51.19c-.38-2.9-.75-5.81-1.13-8.71L.45,34.77a28.2,28.2,0,0,0,0,10.07A22.31,22.31,0,0,0,4.1,48.51,23.43,23.43,0,0,0,8.43,51.19Z"/><path class="cls-2" d="M15,62.81a14.12,14.12,0,0,1,1-5.63,13.82,13.82,0,0,1,1.58-2.93,46,46,0,0,0-.74-6.13q-.3-1.54-.66-2.94A16.61,16.61,0,0,0,11,52.33c-.05.93-.11,1.85-.16,2.78a9.9,9.9,0,0,0,1.49,4.81A9.58,9.58,0,0,0,15,62.81Z"/><path class="cls-2" d="M9.52,53.75a13.94,13.94,0,0,0,1.12,4.69,13.52,13.52,0,0,0,2.47,3.81c-.93-.32-1.89-.69-2.9-1.13A36.48,36.48,0,0,1,4,57.64,16.6,16.6,0,0,1,1.73,53,16.87,16.87,0,0,1,1,47.79a47.5,47.5,0,0,1,4.89,3.08A44.39,44.39,0,0,1,9.52,53.75Z"/><path class="cls-2" d="M21.26,71.49a45.35,45.35,0,0,1,.32-5.33c.18-1.5.43-2.89.7-4.16l-3.66-7.34a14.16,14.16,0,0,0-1.93,3.39,14.42,14.42,0,0,0-1,4.12,10,10,0,0,0,5.54,9.32Z"/><path class="cls-2" d="M19.38,71.14A15.62,15.62,0,0,1,14.2,64a47.33,47.33,0,0,0-4.46-2.25,45.89,45.89,0,0,0-5-1.87,12.24,12.24,0,0,0,5.16,8.77,23.44,23.44,0,0,0,4.37,1.71A24.17,24.17,0,0,0,19.38,71.14Z"/><path class="cls-2" d="M23.47,62.55a24.94,24.94,0,0,0-.91,3.61,24.14,24.14,0,0,0-.27,6,11.52,11.52,0,0,0,7,6.57,21.41,21.41,0,0,1-1-5.3,21.83,21.83,0,0,1,.32-5.16Z"/><path class="cls-2" d="M20.8,72.72A15,15,0,0,0,23.47,76a15.18,15.18,0,0,0,3.67,2.52,22.65,22.65,0,0,1-3.94.3,23.46,23.46,0,0,1-3.51-.3,17.78,17.78,0,0,1-7.94-7.6c1.63.18,3.4.46,5.28.86C18.37,72.06,19.63,72.38,20.8,72.72Z"/><path class="cls-2" d="M29.75,69.86a12.47,12.47,0,0,0,1.3,9.63,12.89,12.89,0,0,0,8.47,5,23.52,23.52,0,0,1-1.85-4.21,24.65,24.65,0,0,1-1.12-5.4C35,73.59,33.25,72.28,31.4,71,30.85,70.6,30.3,70.22,29.75,69.86Z"/><path class="cls-2" d="M30.39,79.93a11.57,11.57,0,0,0,6.73,4.78c-.66.24-1.38.47-2.14.68a24.77,24.77,0,0,1-6.06.83,13.17,13.17,0,0,1-4.34-1.67,13.53,13.53,0,0,1-4.73-4.89Z"/><path class="cls-2" d="M29.9,88.1a1.79,1.79,0,0,1,.19-.71c.13-.26.57-.91,3.43-1.36A27.46,27.46,0,0,1,37,85.74c.68,0,1.24,0,1.63,0a4.52,4.52,0,0,1,2.18.47c.22.12.14.1,1.1.74s1.22.77,1.72,1.16a10.3,10.3,0,0,1,1,.87,46.78,46.78,0,0,1,5.07.94A48.91,48.91,0,0,1,58.56,93a58.69,58.69,0,0,1,5.51,2.82l-2.69,1.62a62.06,62.06,0,0,0-6.25-3.35,32.77,32.77,0,0,0-6.6-2.48A27.42,27.42,0,0,0,44.65,91l-2.72.68a16.65,16.65,0,0,1-12-3.55Z"/><path class="cls-2" d="M50.16,88.13a13.57,13.57,0,0,0-4.38-8.64,14,14,0,0,0-3.28-2.1A26.83,26.83,0,0,0,38,75.53,11.82,11.82,0,0,0,38.36,80a13.24,13.24,0,0,0,1.55,3.44,10.08,10.08,0,0,0,5.43,4.43A9.78,9.78,0,0,0,50.16,88.13Z"/><path class="cls-2" d="M48.8,107l5.62,3.32a42.61,42.61,0,0,1,4.47-5.79,43.19,43.19,0,0,1,10.43-8.3,36.94,36.94,0,0,1,7.74-3.74c.32-.1,2-.61,4.36-1.38l2.06-.66a6.82,6.82,0,0,0,4,1.37,18.16,18.16,0,0,0,5.07-.4,18,18,0,0,0,4.16-1.47,2.93,2.93,0,0,0,1.94-1.6,2.3,2.3,0,0,0,.15-.91,5.26,5.26,0,0,0-1.34-.93A5.42,5.42,0,0,0,94.56,86l-3.51,0-2.55.19a17.06,17.06,0,0,0-2,1.09A19.18,19.18,0,0,0,84,89.07a51.53,51.53,0,0,0-6.68,1.41A52.35,52.35,0,0,0,68,94.05l-5.19,3c-1.93,1.14-3.93,2.4-6,3.81A91.66,91.66,0,0,0,48.8,107Z"/><path class="cls-2" d="M81.07,107.75,75,111.39A31.16,31.16,0,0,0,64.75,99.76l2.61-2Q74.23,102.75,81.07,107.75Z"/><path class="cls-2" d="M100.31.64a11.87,11.87,0,0,1,7.69,0,7.08,7.08,0,0,1,2.45,1.27,7.18,7.18,0,0,1,2.29,3.24l.18,5.37a18,18,0,0,0-4.65-1.43,17.33,17.33,0,0,0-3.06-.23,9.59,9.59,0,0,0-1.48-5A9.73,9.73,0,0,0,100.31.64Z"/><path class="cls-2" d="M114.44,1A11.25,11.25,0,0,1,117.8,3.6a11.39,11.39,0,0,1,2.47,4.57v6.29l-1.17,4A50.87,50.87,0,0,1,116,13.73c-.56-1-1.07-1.89-1.53-2.79a27.08,27.08,0,0,1-.45-5.7A26.26,26.26,0,0,1,114.44,1Z"/><path class="cls-2" d="M118.22,20.17a15.87,15.87,0,0,0-6.17-8.64,12.3,12.3,0,0,0-3.59-.87,12.48,12.48,0,0,0-4.63.45,16.29,16.29,0,0,0,2.11,3.16,16.56,16.56,0,0,0,3,2.71,18,18,0,0,1,6.11,1.4A18.41,18.41,0,0,1,118.22,20.17Z"/><path class="cls-2" d="M121.59,30.72a11.18,11.18,0,0,0-5.76-10.95,11.18,11.18,0,0,0-6.32-1.26,14.64,14.64,0,0,0,4,6.81Z"/><path class="cls-2" d="M122.93,29.38l-2.66-8.66a13.11,13.11,0,0,1,2.17-9.28,14,14,0,0,1,4,8.51,15.37,15.37,0,0,1-3.51,9.43Z"/><path class="cls-2" d="M127.45,23a26.31,26.31,0,0,0-2.11,3.45,26.79,26.79,0,0,0-2,5.09c-.08,3-.16,6-.23,9l5.86-7a18.56,18.56,0,0,0-.49-7.86A22.58,22.58,0,0,0,127.45,23Z"/><path class="cls-2" d="M113.12,27.19a15.67,15.67,0,0,1,9.07,5.88c0,2.67,0,5.34.07,8a40.6,40.6,0,0,0-8.2-7.57Q113.58,30.36,113.12,27.19Z"/><path class="cls-2" d="M120.21,51.32a26.71,26.71,0,0,0-1.86-3,25.41,25.41,0,0,0-4.2-4.52V35.91a15.52,15.52,0,0,1,4.21,2.68,15.15,15.15,0,0,1,2.8,3.33,16.13,16.13,0,0,1-1,9.4Z"/><path class="cls-2" d="M121.78,51.19c.38-2.9.75-5.81,1.13-8.71l6.85-7.71a28.2,28.2,0,0,1,0,10.07,22.31,22.31,0,0,1-3.65,3.67A23.43,23.43,0,0,1,121.78,51.19Z"/><path class="cls-2" d="M115.2,62.81a14.12,14.12,0,0,0-1-5.63,13.82,13.82,0,0,0-1.58-2.93,46,46,0,0,1,.74-6.13q.3-1.54.66-2.94a16.61,16.61,0,0,1,5.21,7.15c0,.93.11,1.85.16,2.78a9.9,9.9,0,0,1-1.49,4.81A9.58,9.58,0,0,1,115.2,62.81Z"/><path class="cls-2" d="M120.69,53.75a13.94,13.94,0,0,1-1.12,4.69,13.52,13.52,0,0,1-2.47,3.81c.93-.32,1.89-.69,2.9-1.13a36.48,36.48,0,0,0,6.18-3.48,16.6,16.6,0,0,0,2.3-4.61,16.87,16.87,0,0,0,.77-5.24,47.5,47.5,0,0,0-4.89,3.08A44.39,44.39,0,0,0,120.69,53.75Z"/><path class="cls-2" d="M109,71.49a45.35,45.35,0,0,0-.32-5.33c-.18-1.5-.43-2.89-.7-4.16l3.66-7.34a14.16,14.16,0,0,1,1.93,3.39,14.42,14.42,0,0,1,1,4.12A10,10,0,0,1,109,71.49Z"/><path class="cls-2" d="M110.83,71.14A15.62,15.62,0,0,0,116,64a47.33,47.33,0,0,1,4.46-2.25,45.89,45.89,0,0,1,5-1.87,12.24,12.24,0,0,1-5.16,8.77A23.44,23.44,0,0,1,116,70.32,24.17,24.17,0,0,1,110.83,71.14Z"/><path class="cls-2" d="M106.74,62.55a24.94,24.94,0,0,1,.91,3.61,24.14,24.14,0,0,1,.27,6,11.52,11.52,0,0,1-7,6.57,21.41,21.41,0,0,0,1-5.3,21.83,21.83,0,0,0-.32-5.16Z"/><path class="cls-2" d="M109.42,72.72A15,15,0,0,1,106.75,76a15.18,15.18,0,0,1-3.67,2.52,22.65,22.65,0,0,0,3.94.3,23.46,23.46,0,0,0,3.51-.3,17.78,17.78,0,0,0,7.94-7.6c-1.63.18-3.4.46-5.28.86C111.84,72.06,110.59,72.38,109.42,72.72Z"/><path class="cls-2" d="M100.46,69.86a12.47,12.47,0,0,1-1.3,9.63,12.89,12.89,0,0,1-8.47,5,23.52,23.52,0,0,0,1.85-4.21,24.65,24.65,0,0,0,1.12-5.4c1.58-1.31,3.3-2.62,5.15-3.91C99.36,70.6,99.91,70.22,100.46,69.86Z"/><path class="cls-2" d="M99.82,79.93a11.57,11.57,0,0,1-6.73,4.78c.66.24,1.38.47,2.14.68a24.77,24.77,0,0,0,6.06.83,13.17,13.17,0,0,0,4.34-1.67,13.53,13.53,0,0,0,4.73-4.89Z"/><path class="cls-2" d="M80.05,88.13a13.57,13.57,0,0,1,4.38-8.64,14,14,0,0,1,3.28-2.1,26.83,26.83,0,0,1,4.48-1.86A11.82,11.82,0,0,1,91.85,80a13.24,13.24,0,0,1-1.55,3.44,10.08,10.08,0,0,1-5.43,4.43A9.78,9.78,0,0,1,80.05,88.13Z"/></g></g></svg>