<svg xmlns="http://www.w3.org/2000/svg" xmlns:xlink="http://www.w3.org/1999/xlink" viewBox="0 0 130.2 137.42"><defs>
<style>
.cls-1{fill:#cf976a;}
.cls-2,.cls-4{fill:#7a5939;}
.cls-3{fill:#f6f0e8;}
.cls-4{font-size:24px;font-family:Forum;}
.cls-5{letter-spacing:-0.06em;}
</style><symbol id="Новый_символ" data-name="Новый символ" viewBox="0 0 130.2 137.42"><path class="cls-1" d="M99.52,14.38c.48,6.55,2.61,43-22.22,63.39a53.92,53.92,0,0,1-13.28,8A67.74,67.74,0,0,1,44.75,69.15C27.32,47.08,29.65,20.9,30.48,14a61.58,61.58,0,0,0,12.27-1.3A62.06,62.06,0,0,0,63.51,4.17l2.56-.25a66.35,66.35,0,0,0,20.71,8.79A65.93,65.93,0,0,0,99.52,14.38Z"/><path class="cls-2" d="M95.32,18.06c.43,5.76,2.31,37.83-19.53,55.73a47.39,47.39,0,0,1-11.67,7A59.68,59.68,0,0,1,47.18,66.21C31.85,46.81,33.9,23.79,34.64,17.74A53.78,53.78,0,0,0,45.42,16.6,54.66,54.66,0,0,0,63.67,9.08l2.25-.22a58.36,58.36,0,0,0,18.2,7.73A57.51,57.51,0,0,0,95.32,18.06Z"/><rect class="cls-3" x="56.65" y="40.9" width="16" height="16"/><polygon class="cls-3" points="81.01 34.57 72.74 40.88 66.61 32.85 66.66 32.81 66.61 32.74 74.82 26.47 81.01 34.57"/><polygon class="cls-3" points="66.56 32.78 66.61 32.85 56.65 40.79 48.67 30.77 58.69 22.8 66.61 32.74 66.56 32.78"/><path class="cls-2" d="M29.9.64a11.84,11.84,0,0,0-7.68,0,7.08,7.08,0,0,0-2.45,1.27,7.25,7.25,0,0,0-2.3,3.24l-.18,5.37a18,18,0,0,1,4.65-1.43A17.44,17.44,0,0,1,25,8.86a9.57,9.57,0,0,1,1.48-5A9.46,9.46,0,0,1,29.9.64Z"/><path class="cls-2" d="M15.77,1A11.3,11.3,0,0,0,9.94,8.17v6.29l1.17,4a51.09,51.09,0,0,0,3.13-4.7c.56-1,1.07-1.88,1.53-2.78a27.18,27.18,0,0,0,.45-5.71A28.76,28.76,0,0,0,15.77,1Z"/><path class="cls-2" d="M12,20.17a15.87,15.87,0,0,1,6.17-8.64,12.62,12.62,0,0,1,3.59-.87,12.42,12.42,0,0,1,4.62.45,16.48,16.48,0,0,1-2.1,3.16,16.92,16.92,0,0,1-3,2.71,18,18,0,0,0-6.11,1.4A17.41,17.41,0,0,0,12,20.17Z"/><path class="cls-2" d="M8.62,30.72a11,11,0,0,1,2-7.66,11,11,0,0,1,10.05-4.55,14.82,14.82,0,0,1-1.49,3.58,14.48,14.48,0,0,1-2.56,3.23Z"/><path class="cls-2" d="M7.28,29.38l2.66-8.66a13,13,0,0,0-.33-5.3,13,13,0,0,0-1.84-4,14,14,0,0,0-4,8.51,15.47,15.47,0,0,0,1,5.06A15.28,15.28,0,0,0,7.28,29.38Z"/><path class="cls-2" d="M2.76,23a27.43,27.43,0,0,1,2.11,3.45,26.79,26.79,0,0,1,2,5.09l.24,9-5.86-7a18.37,18.37,0,0,1,.5-7.85A16.89,16.89,0,0,1,2.76,23Z"/><path class="cls-2" d="M17.09,27.19A15.72,15.72,0,0,0,8,33.06c0,2.67,0,5.34-.07,8A40.8,40.8,0,0,1,11,37.75a40.29,40.29,0,0,1,5.14-4.24Z"/><path class="cls-2" d="M10,51.32a25.47,25.47,0,0,1,1.87-3,25,25,0,0,1,4.2-4.52V35.9a15.6,15.6,0,0,0-4.21,2.69,14.92,14.92,0,0,0-2.8,3.33,16.24,16.24,0,0,0,.94,9.4Z"/><path class="cls-2" d="M8.43,51.19c-.38-2.9-.75-5.81-1.13-8.71L.45,34.77a28.14,28.14,0,0,0,0,10.06A22.31,22.31,0,0,0,4.1,48.5,22.7,22.7,0,0,0,8.43,51.19Z"/><path class="cls-2" d="M15,62.81a14.3,14.3,0,0,1,1-5.63,13.72,13.72,0,0,1,1.58-2.92,44.37,44.37,0,0,0-.75-6.13c-.19-1-.42-2-.66-2.94a16.56,16.56,0,0,0-3,3.1A16.33,16.33,0,0,0,11,52.34l-.16,2.78a9.93,9.93,0,0,0,1.49,4.81A10,10,0,0,0,15,62.81Z"/><path class="cls-2" d="M9.51,53.74a14.05,14.05,0,0,0,1.13,4.7,13.9,13.9,0,0,0,2.46,3.81c-.92-.32-1.89-.69-2.89-1.13A37.72,37.72,0,0,1,4,57.64,16.91,16.91,0,0,1,1.73,53,16.64,16.64,0,0,1,1,47.79a49.08,49.08,0,0,1,4.89,3.07C7.21,51.83,8.43,52.81,9.51,53.74Z"/><path class="cls-2" d="M21.26,71.49a43.18,43.18,0,0,1,.32-5.33c.18-1.5.42-2.89.7-4.16l-3.66-7.34a14.14,14.14,0,0,0-2.89,7.51,10,10,0,0,0,5.53,9.32Z"/><path class="cls-2" d="M19.38,71.14a15.4,15.4,0,0,1-3.58-3.89A15.59,15.59,0,0,1,14.19,64,45,45,0,0,0,9.73,61.7a45.15,45.15,0,0,0-5-1.87A12.25,12.25,0,0,0,5.91,64,12.51,12.51,0,0,0,9.85,68.6a23.29,23.29,0,0,0,4.38,1.71A23.64,23.64,0,0,0,19.38,71.14Z"/><path class="cls-2" d="M23.46,62.55a24.94,24.94,0,0,0-.91,3.61,24.14,24.14,0,0,0-.27,6,11.62,11.62,0,0,0,2.76,4,11.34,11.34,0,0,0,4.23,2.53,21.32,21.32,0,0,1-1-5.29,21.92,21.92,0,0,1,.32-5.17Z"/><path class="cls-2" d="M20.79,72.72a15.3,15.3,0,0,0,6.34,5.79,22.65,22.65,0,0,1-3.94.3,22.21,22.21,0,0,1-3.51-.3,17.78,17.78,0,0,1-7.94-7.6c1.63.18,3.41.46,5.29.86C18.36,72.06,19.62,72.38,20.79,72.72Z"/><path class="cls-2" d="M29.75,69.86a12.47,12.47,0,0,0,1.3,9.63,12.84,12.84,0,0,0,8.46,5,25,25,0,0,1-1.85-4.21,24.06,24.06,0,0,1-1.11-5.41C35,73.59,33.25,72.27,31.4,71,30.85,70.6,30.3,70.22,29.75,69.86Z"/><path class="cls-2" d="M30.39,79.92a11.47,11.47,0,0,0,3.32,3.28,11.24,11.24,0,0,0,3.41,1.5,21.56,21.56,0,0,1-2.14.68,24.77,24.77,0,0,1-6.06.83,13.26,13.26,0,0,1-4.34-1.66,13.61,13.61,0,0,1-4.73-4.89Z"/><path class="cls-2" d="M29.9,88.1a1.75,1.75,0,0,1,.18-.71c.14-.26.57-.91,3.43-1.36A25.74,25.74,0,0,1,37,85.74c.67,0,1.24,0,1.62,0a4.65,4.65,0,0,1,2.19.47c.22.12.14.1,1.1.74s1.22.78,1.72,1.16a11.88,11.88,0,0,1,1,.87,46.35,46.35,0,0,1,5.07.94A48.62,48.62,0,0,1,58.55,93a57.07,57.07,0,0,1,5.51,2.81l-2.68,1.62a64.31,64.31,0,0,0-6.25-3.35,32.77,32.77,0,0,0-6.6-2.48A28.71,28.71,0,0,0,44.65,91l-2.72.68a16.7,16.7,0,0,1-12-3.54Z"/><path class="cls-2" d="M50.15,88.13a13.65,13.65,0,0,0-1.22-4.37,13.84,13.84,0,0,0-3.16-4.27,14,14,0,0,0-3.28-2.1A27.71,27.71,0,0,0,38,75.53,12,12,0,0,0,38.35,80,13,13,0,0,0,39.9,83.4a10.08,10.08,0,0,0,5.43,4.43A9.81,9.81,0,0,0,50.15,88.13Z"/><path class="cls-2" d="M48.79,107l5.62,3.32a42.47,42.47,0,0,1,4.46-5.79,43.32,43.32,0,0,1,10.43-8.3,37.24,37.24,0,0,1,7.75-3.74l4.36-1.38,2.06-.66a6.75,6.75,0,0,0,1.77.95,7.08,7.08,0,0,0,2.27.41,18.16,18.16,0,0,0,5.07-.4,18.75,18.75,0,0,0,4.17-1.47,2.93,2.93,0,0,0,1.93-1.6,2.32,2.32,0,0,0,.15-.92,5.64,5.64,0,0,0-1.33-.93A5.44,5.44,0,0,0,94.56,86l-3.51,0-2.56.19a17.7,17.7,0,0,0-2,1.08A19.18,19.18,0,0,0,84,89a53.26,53.26,0,0,0-6.68,1.41A52.48,52.48,0,0,0,68,94l-5.19,3c-1.92,1.13-3.93,2.4-6,3.81C53.86,102.9,51.18,105,48.79,107Z"/><path class="cls-2" d="M81.07,107.74,75,111.38a31.32,31.32,0,0,0-10.2-11.62l2.61-2Z"/><path class="cls-2" d="M22.09,78.51"/><path class="cls-2" d="M20.81,5.59"/><path class="cls-2" d="M100.3.64a11.84,11.84,0,0,1,7.68,0,7.08,7.08,0,0,1,2.45,1.27,7.25,7.25,0,0,1,2.3,3.24l.18,5.37a18,18,0,0,0-4.65-1.43,17.44,17.44,0,0,0-3.07-.23,9.57,9.57,0,0,0-1.48-5A9.46,9.46,0,0,0,100.3.64Z"/><path class="cls-2" d="M114.43,1a11.3,11.3,0,0,1,5.83,7.15v6.29l-1.17,4a51.09,51.09,0,0,1-3.13-4.7c-.56-1-1.07-1.88-1.53-2.78A27.18,27.18,0,0,1,114,5.23,27.45,27.45,0,0,1,114.43,1Z"/><path class="cls-2" d="M118.22,20.17a15.87,15.87,0,0,0-6.17-8.64,12.62,12.62,0,0,0-3.59-.87,12.48,12.48,0,0,0-4.63.45,16.6,16.6,0,0,0,2.11,3.16,16.92,16.92,0,0,0,3,2.71,17.89,17.89,0,0,1,6.1,1.4A17.2,17.2,0,0,1,118.22,20.17Z"/><path class="cls-2" d="M121.58,30.72a11,11,0,0,0-2-7.66,11,11,0,0,0-10.05-4.55A14.82,14.82,0,0,0,111,22.09a14.48,14.48,0,0,0,2.56,3.23Z"/><path class="cls-2" d="M122.92,29.38l-2.66-8.66a13.1,13.1,0,0,1,2.17-9.27,14,14,0,0,1,4,8.51,15.31,15.31,0,0,1-3.51,9.42Z"/><path class="cls-2" d="M127.44,23a27.43,27.43,0,0,0-2.11,3.45,26.79,26.79,0,0,0-2,5.09l-.24,9,5.86-7a18.37,18.37,0,0,0-.5-7.85A16.89,16.89,0,0,0,127.44,23Z"/><path class="cls-2" d="M113.11,27.19a15.7,15.7,0,0,1,5.31,2.3,15.47,15.47,0,0,1,3.75,3.57c0,2.67,0,5.34.08,8a40.8,40.8,0,0,0-3.06-3.32,40.29,40.29,0,0,0-5.14-4.24Z"/><path class="cls-2" d="M120.21,51.32a25.77,25.77,0,0,0-6.07-7.5V35.9a15.6,15.6,0,0,1,4.21,2.69,14.92,14.92,0,0,1,2.8,3.33,16.24,16.24,0,0,1-.94,9.4Z"/><path class="cls-2" d="M121.77,51.19c.38-2.9.75-5.81,1.13-8.71l6.85-7.71a28.14,28.14,0,0,1,0,10.06,22,22,0,0,1-3.66,3.67A22.67,22.67,0,0,1,121.77,51.19Z"/><path class="cls-2" d="M115.2,62.81a14.49,14.49,0,0,0-1-5.63,13.72,13.72,0,0,0-1.58-2.92,45.84,45.84,0,0,1,.74-6.13c.2-1,.43-2,.67-2.94a16.56,16.56,0,0,1,3,3.1,16.33,16.33,0,0,1,2.21,4.05l.16,2.78a9.93,9.93,0,0,1-1.49,4.81A10,10,0,0,1,115.2,62.81Z"/><path class="cls-2" d="M120.69,53.74a14.05,14.05,0,0,1-1.13,4.7,13.9,13.9,0,0,1-2.46,3.81c.92-.32,1.89-.69,2.89-1.13a37.18,37.18,0,0,0,6.18-3.48,16.56,16.56,0,0,0,3.07-9.85,49.08,49.08,0,0,0-4.89,3.07C123,51.83,121.77,52.81,120.69,53.74Z"/><path class="cls-2" d="M108.94,71.49a45.23,45.23,0,0,0-.32-5.33c-.18-1.5-.42-2.89-.7-4.16l3.66-7.34a13.85,13.85,0,0,1,1.92,3.39,14,14,0,0,1,1,4.12,10,10,0,0,1-5.53,9.32Z"/><path class="cls-2" d="M110.82,71.14a15.59,15.59,0,0,0,3.58-3.89A15,15,0,0,0,116,64a45.22,45.22,0,0,1,4.47-2.26,45.78,45.78,0,0,1,5-1.87A12,12,0,0,1,124.29,64a12.51,12.51,0,0,1-3.94,4.59,23.39,23.39,0,0,1-9.53,2.54Z"/><path class="cls-2" d="M106.74,62.55a24.94,24.94,0,0,1,.91,3.61,24.63,24.63,0,0,1,.27,6,11.62,11.62,0,0,1-2.76,4,11.34,11.34,0,0,1-4.23,2.53,21.32,21.32,0,0,0,1-5.29,21.92,21.92,0,0,0-.32-5.17Z"/><path class="cls-2" d="M109.41,72.72a15.3,15.3,0,0,1-6.34,5.79,22.65,22.65,0,0,0,3.94.3,22.21,22.21,0,0,0,3.51-.3,17.78,17.78,0,0,0,7.94-7.6c-1.63.18-3.41.46-5.29.86C111.84,72.06,110.58,72.38,109.41,72.72Z"/><path class="cls-2" d="M100.45,69.86a12.47,12.47,0,0,1-1.3,9.63,12.86,12.86,0,0,1-4.26,3.65,13.06,13.06,0,0,1-4.2,1.37,25,25,0,0,0,1.85-4.21,24.06,24.06,0,0,0,1.11-5.41c1.59-1.3,3.3-2.62,5.15-3.91C99.35,70.6,99.9,70.22,100.45,69.86Z"/><path class="cls-2" d="M99.81,79.92a11.47,11.47,0,0,1-3.32,3.28,11.24,11.24,0,0,1-3.41,1.5,21.56,21.56,0,0,0,2.14.68,24.77,24.77,0,0,0,6.06.83,13.26,13.26,0,0,0,4.34-1.66,13.61,13.61,0,0,0,4.73-4.89Z"/><path class="cls-2" d="M80.05,88.13a13.65,13.65,0,0,1,1.22-4.37,13.84,13.84,0,0,1,3.16-4.27,14,14,0,0,1,3.28-2.1,27.71,27.71,0,0,1,4.48-1.86A12,12,0,0,1,91.85,80,13,13,0,0,1,90.3,83.4a10.08,10.08,0,0,1-5.43,4.43A9.81,9.81,0,0,1,80.05,88.13Z"/><path class="cls-2" d="M108.11,78.51"/><path class="cls-2" d="M109.39,5.59"/><text class="cls-4" transform="translate(16.27 131.47)">ПИФА<tspan class="cls-5" x="62.3" y="0">Г</tspan><tspan x="71.57" y="0">ОР</tspan></text></symbol></defs><g id="Слой_2" data-name="Слой 2"><g id="Слой_1-2" data-name="Слой 1"><use width="130.2" height="137.42" xlink:href="#Новый_символ"/></g></g></svg>