<svg xmlns="http://www.w3.org/2000/svg" viewBox="0 0 184.6 276"><defs>
<style>
.cls-1{fill:#EF4444;} 
.cls-2{fill:#fff;}
.cls-3{fill:none;stroke:#fff;stroke-miterlimit:10;stroke-width:3px;}
</style></defs><g id="Слой_2" data-name="Слой 2"><g id="Слой_1-2" data-name="Слой 1"><path class="cls-1" d="M0,27.83,93.19,0,184.6,27.83V211.91A282.23,282.23,0,0,1,152,242.62,283.45,283.45,0,0,1,99.45,276H89.11a360.1,360.1,0,0,1-50.85-30.54A358.8,358.8,0,0,1,0,213.7Z"/><polygon class="cls-2" points="111.27 38.75 107.34 36.71 103.44 38.79 104.16 34.43 100.98 31.36 105.36 30.7 107.29 26.73 109.27 30.68 113.65 31.3 110.5 34.4 111.27 38.75"/><polygon class="cls-2" points="81.44 38.75 77.52 36.71 73.61 38.79 74.34 34.43 71.16 31.36 75.53 30.7 77.47 26.73 79.44 30.68 83.82 31.3 80.67 34.4 81.44 38.75"/><polygon class="cls-2" points="97.91 37.83 92.84 35.2 87.8 37.88 88.74 32.24 84.63 28.28 90.28 27.43 92.78 22.3 95.33 27.41 100.98 28.2 96.91 32.21 97.91 37.83"/><path class="cls-2" d="M74,138.17,87,132.94l2.76-10.64a3.34,3.34,0,0,1,4.73,0l2.68,10.42,13,5.28a3,3,0,0,1-.13,1.53,3.46,3.46,0,0,1-2.47,2,52.89,52.89,0,0,0-8.71,2.75c-.51.21-1,.43-1.5.65l-2.64,12.77a3.55,3.55,0,0,1-1.59.87A4.3,4.3,0,0,1,89,156.89l-2.3-12.55c-1-.25-2-.52-3.05-.82-2.62-.75-5.07-1.58-7.33-2.46a4.12,4.12,0,0,1-1.49-1.23A4.22,4.22,0,0,1,74,138.17Z"/><path class="cls-3" d="M3.19,211.66V31.4L92.81,3.83,181.4,30.09V211.66a304.51,304.51,0,0,1-35.62,31.15,303.84,303.84,0,0,1-48.12,29.36H89.74a300.17,300.17,0,0,1-51.31-30.26A300.38,300.38,0,0,1,3.19,211.66Z"/><path class="cls-2" d="M151.72,126.06a71.65,71.65,0,0,0,6.61-17.6c.53-2.39.89-4.8,1.19-7.23a48.9,48.9,0,0,0,.57-8.63,21.19,21.19,0,0,0-8.84-16.19,31.55,31.55,0,0,0-11.65-5.07c-6.62-1.55-13.19-.69-19.69,1a74,74,0,0,0-17.29,6.82A140.46,140.46,0,0,0,80.81,94a240.9,240.9,0,0,0-28.05,27.46c-1.72,2-2.08,5.17,0,7.07,1.89,1.74,5.23,2.11,7.07,0A251.38,251.38,0,0,1,84.15,104.2q2.5-2.17,5.09-4.26l1.93-1.53c.6-.46-1.13.86-.13.11l.74-.56a116.58,116.58,0,0,1,10.34-7c2.15-1.29,4.33-2.55,6.54-3.72,1.14-.61,2.29-1.19,3.47-1.74.61-.28,1.22-.56,1.84-.82-.94.4-.25.1,0,0l1.38-.53a74.81,74.81,0,0,1,8.43-2.5c1.32-.32,2.64-.62,4-.85l.81-.13c1.32-.22-.72,0,.11,0s1.53-.14,2.3-.18a30.41,30.41,0,0,1,4.37.16c-1-.1-.17,0,0,0,.47.09.93.17,1.39.27s1.21.3,1.81.47,1.27.37,1.89.58c.4.13.79.27,1.18.42l.62.25c.36.14.17.06-.55-.24l.52.24A20.92,20.92,0,0,1,144.73,84c.23.14.45.28.68.44s1,.52.29.18.13.12.28.24.51.45.76.69c.42.4.8.84,1.2,1.27.79.86-.4-.64,0,0,.16.26.35.51.52.77.33.53.62,1.09.91,1.65s.34.22-.08-.19a3.34,3.34,0,0,1,.39,1.19c.18.6.2,1.31.41,1.89-.37-1-.07-.57,0-.09s.06.85.07,1.27a38.39,38.39,0,0,1-.2,4.29c-.08.86-.18,1.72-.28,2.58,0,.44-.43,2.72-.09.85-.19,1-.33,2.11-.53,3.16a63.77,63.77,0,0,1-2.14,8c-.24.73-.5,1.45-.77,2.16l-.39,1c0,.09-.58,1.43-.17.45-.74,1.75-1.58,3.47-2.46,5.15-1.21,2.32-.67,5.54,1.79,6.84,2.31,1.22,5.55.68,6.84-1.79Z"/><path class="cls-2" d="M32.52,150.63a71.72,71.72,0,0,0-6.65,17.58c-.54,2.38-.9,4.8-1.21,7.23a49.78,49.78,0,0,0-.6,8.62,21.19,21.19,0,0,0,8.81,16.22,31.64,31.64,0,0,0,11.64,5.09c6.61,1.57,13.19.73,19.69-.92a73.94,73.94,0,0,0,17.31-6.77,140.45,140.45,0,0,0,21.85-14.79,240.91,240.91,0,0,0,28.13-27.38c1.73-2,2.07-5.17,0-7.07-1.9-1.74-5.23-2.1-7.07,0A251.38,251.38,0,0,1,100,172.68c-1.68,1.44-3.37,2.86-5.1,4.24-.34.28-.68.55-1,.81s-1.53,1.15-.07.07c-.49.36-1,.73-1.45,1.1a120.31,120.31,0,0,1-10.36,7c-2.16,1.28-4.34,2.53-6.55,3.7-1.15.6-2.3,1.18-3.47,1.73-.29.13-2.14.93-1,.47-.71.3-1.43.58-2.15.85a75,75,0,0,1-8.45,2.47c-1.31.32-2.64.61-4,.84a4,4,0,0,1-.82.13c1,.09.26,0-.1,0-.77.08-1.54.14-2.31.17a27.66,27.66,0,0,1-4.36-.17c1,.11.16,0,0,0-.46-.1-.92-.17-1.38-.28s-1.21-.3-1.81-.48-1.27-.37-1.89-.58c-.39-.13-.79-.27-1.18-.42l-.62-.25.56.23-.53-.23a22.33,22.33,0,0,1-2.54-1.39l-.68-.44c-.09-.06-1-.6-.29-.19s-.17-.15-.27-.24c-.26-.22-.52-.45-.76-.69-.43-.4-.81-.84-1.2-1.28-.79-.86.4.64,0,0-.16-.26-.35-.5-.51-.77-.34-.53-.62-1.09-.91-1.65s-.31-.17.08.18c-.21-.19-.31-.9-.39-1.18-.17-.62-.21-1.3-.4-1.9.35,1.08.07.53,0,.09s-.05-.84-.06-1.27a36.25,36.25,0,0,1,.21-4.29c.08-.86.18-1.72.29-2.58,0-.3.07-.6.11-.9.15-1.33-.15,1,0,.06s.33-2.11.54-3.16a63.81,63.81,0,0,1,2.15-8q.38-1.08.78-2.16l.39-1c0-.09.61-1.42.18-.45.77-1.75,1.59-3.46,2.48-5.14,1.22-2.32.66-5.55-1.8-6.85a5.08,5.08,0,0,0-6.84,1.8Z"/><path class="cls-2" d="M80.47,78.8A71.34,71.34,0,0,0,62.8,72.4a70.9,70.9,0,0,0-7.25-1.12,48.83,48.83,0,0,0-8.63-.47,21.26,21.26,0,0,0-16.12,9A31.54,31.54,0,0,0,25.87,91.5c-1.47,6.64-.57,13.2,1.18,19.68a74,74,0,0,0,7,17.21A140.7,140.7,0,0,0,49.16,150,240.89,240.89,0,0,0,77,177.73c2,1.7,5.15,2.1,7.07,0,1.71-1.86,2.12-5.25,0-7.07a251.3,251.3,0,0,1-24.61-24c-1.47-1.66-2.91-3.33-4.32-5-.52-.63-1-1.27-1.55-1.92-.19-.23-.38-.48-.57-.72l-.29-.36c-.48-.61.81,1.06.38.49-2.52-3.32-4.95-6.7-7.13-10.25-1.31-2.14-2.6-4.3-3.81-6.49-.62-1.14-1.21-2.28-1.77-3.45-.29-.6-.58-1.22-.85-1.83l-.33-.76c.46,1.09-.13-.34-.21-.56a74.81,74.81,0,0,1-2.6-8.4c-.34-1.32-.65-2.64-.9-4,0-.27-.1-.54-.14-.81,0,0-.19-1.36-.09-.56s-.06-.57-.06-.58c0-.42-.07-.84-.09-1.27a30.24,30.24,0,0,1,.1-4.36c.1-1,0-.23,0,0,.08-.46.16-.93.26-1.39.13-.61.29-1.21.45-1.82s.35-1.27.56-1.89c.12-.4.26-.79.4-1.18l.24-.63c.41-1.12-.44.92,0,0a28.43,28.43,0,0,1,1.35-2.56c.28-.46.64-.89.9-1.36s-.79.93-.06.09c.22-.26.44-.52.67-.77a16.3,16.3,0,0,1,1.27-1.22c.06,0,1-.7.34-.29s.35-.22.39-.24c.54-.35,1.09-.63,1.65-.93.31-.18.55-.5-.2.06a4.47,4.47,0,0,1,1.18-.41,10.41,10.41,0,0,0,1.89-.43l-.62.08.53-.06c.42,0,.85-.06,1.27-.08a38.44,38.44,0,0,1,4.29.15c1.5.12,3,.29,4.5.46.33,0,.93.16-.53-.07.28,0,.56.07.84.12.6.09,1.2.19,1.79.3a62.13,62.13,0,0,1,8.06,2c1.49.48,3,1,4.42,1.61s-.53-.25.28.11l1.49.67c.89.41,1.76.84,2.63,1.28,2.33,1.19,5.53.69,6.84-1.79,1.21-2.28.7-5.58-1.79-6.84Z"/><path class="cls-2" d="M104.42,197.82A71.66,71.66,0,0,0,122,204.53c2.39.55,4.8.92,7.23,1.24a49.81,49.81,0,0,0,8.62.63,21.14,21.14,0,0,0,16.24-8.76A31.82,31.82,0,0,0,159.19,186c1.6-6.61.78-13.2-.84-19.71a74.25,74.25,0,0,0-6.7-17.32,140.37,140.37,0,0,0-14.71-21.92,240.83,240.83,0,0,0-27.27-28.23c-2-1.74-5.17-2.07-7.07,0-1.74,1.89-2.08,5.21,0,7.07a249,249,0,0,1,24.14,24.48q2.16,2.52,4.23,5.12l.8,1c.48.61-.33-.44-.34-.45l.4.53c.37.48.74,1,1.1,1.45a120.25,120.25,0,0,1,6.93,10.39c1.27,2.16,2.52,4.35,3.68,6.57q.9,1.71,1.71,3.48c.13.29.91,2.14.47,1,.28.71.57,1.43.83,2.15a75,75,0,0,1,2.44,8.46c.31,1.31.6,2.64.82,4a5.69,5.69,0,0,1,.13.81c0-1.1,0-.21,0,.11.08.76.14,1.53.17,2.3a25.42,25.42,0,0,1-.19,4.36c.13-1,0-.15,0,0-.1.46-.17.93-.28,1.38-.14.61-.31,1.21-.49,1.81s-.37,1.27-.59,1.89c-.13.39-.28.78-.43,1.17,0,.15-.4,1,0,.15s-.13.28-.2.44a24.08,24.08,0,0,1-1.4,2.54c-.14.23-.29.45-.44.67s-.7,1-.2.29-.18.2-.24.27c-.22.26-.45.52-.69.76-.41.42-.85.8-1.29,1.2-.86.77.64-.4,0,0-.26.16-.51.35-.77.51a5.19,5.19,0,0,1-1.66.9c.08,0,1.08-.39.18-.09-.39.14-.78.28-1.18.39s-.57.15-.86.21-1.22.47-.06.05a7.47,7.47,0,0,1-2.16.14,36.16,36.16,0,0,1-4.29-.23c-.86-.08-1.72-.19-2.58-.29l-.9-.12c-.86-.1,1.41.21.06,0-1.06-.16-2.11-.34-3.16-.56a61.73,61.73,0,0,1-8-2.19c-.72-.25-1.44-.51-2.15-.78l-1-.4c-1.35-.53.91.41-.44-.19q-2.62-1.14-5.14-2.49a5,5,0,1,0-5,8.64Z"/></g></g></svg>