<svg xmlns="http://www.w3.org/2000/svg" viewBox="0 0 34.95 40.92"><defs>
<style>
.cls-1{fill:#C4A86A;}
.cls-2{fill:#6B6452;}
.cls-3{fill:#FFFDF5;}
</style></defs><g id="Слой_2" data-name="Слой 2"><g id="Слой_1-2" data-name="Слой 1"><path class="cls-1" d="M34.82,5.24c.24,3.27,1.31,21.51-11.12,31.7a26.94,26.94,0,0,1-6.63,4,33.85,33.85,0,0,1-9.64-8.3C-1.29,21.59-.12,8.49.29,5.05A30.87,30.87,0,0,0,6.43,4.4,31.08,31.08,0,0,0,16.81.13L18.09,0A33.2,33.2,0,0,0,28.45,4.4,33.76,33.76,0,0,0,34.82,5.24Z"/><path class="cls-2" d="M32.72,7.08C32.93,10,33.87,26,23,35a23.81,23.81,0,0,1-5.83,3.5,29.8,29.8,0,0,1-8.48-7.3C1,21.45,2,9.94,2.37,6.92a26.53,26.53,0,0,0,5.39-.58,27.27,27.27,0,0,0,9.13-3.75L18,2.47a29.18,29.18,0,0,0,9.11,3.87A29.19,29.19,0,0,0,32.72,7.08Z"/><rect class="cls-3" x="13.38" y="18.5" width="8" height="8"/><polygon class="cls-3" points="25.56 15.33 21.42 18.49 18.36 14.47 18.38 14.45 18.36 14.42 22.46 11.28 25.56 15.33"/><polygon class="cls-3" points="18.33 14.44 18.36 14.47 13.38 18.44 9.39 13.43 14.4 9.45 18.36 14.42 18.33 14.44"/></g></g></svg>